<?xml version="1.0" encoding="utf-8"?>
<!-- Generator: Adobe Illustrator 26.1.0, SVG Export Plug-In . SVG Version: 6.00 Build 0)  -->
<svg version="1.1" id="Layer_1" xmlns="http://www.w3.org/2000/svg" xmlns:xlink="http://www.w3.org/1999/xlink" x="0px" y="0px"
	 viewBox="0 0 1749.7 1748.7" style="enable-background:new 0 0 1749.7 1748.7;" xml:space="preserve">
<style type="text/css">
	.st0{fill:#313131;}
	.st1{fill:none;stroke:#313131;stroke-width:150;stroke-miterlimit:11.3386;}
</style>
<g id="test.001" >
	<path class="st0" d="M833.3,807.5v133.7l538.3,384.5l44.2-164.7l-401.3-286.7l401.3-286.7L1371.5,423L833.3,807.5z M576.3,367
		l-33.4,17.9l-29.3,24.1l-24.1,29.3l-17.9,33.4l-11,36.2l-3.7,37.7v188.7l-2.1,15.7l-6.1,14.6l-9.7,12.6l-12.6,9.7l-14.6,6.1
		l-15.7,2.1h-63.4v158.8h63.5l15.7,2.1l14.6,6.1l12.6,9.7l9.7,12.6l6.1,14.6l2.1,15.7v188.7l3.7,37.7l11,36.2l17.9,33.4l24.1,29.3
		L543,1364l33.4,17.9l36.2,11l37.7,3.7h111.9v-158.2h-97.9l-12.4-1.6l-11.6-4.8l-10-7.6l-7.6-10l-4.8-11.6l-1.6-12.4v-178.8
		l-3.5-37.4L602.6,938l-16.7-33.6l-22.6-30l22.6-30l16.7-33.6l10.3-36.1l3.5-37.4V558.6l1.6-12.4l4.8-11.6l7.6-10l10-7.6l11.6-4.8
		l12.4-1.6h97.9V352.3H650.2l-37.7,3.7L576.3,367z"/>
</g>
<circle class="st1" cx="874.2" cy="874.3" r="805.8"/>
</svg>
