<?xml version="1.0" encoding="utf-8"?>
<!-- Generator: Adobe Illustrator 26.1.0, SVG Export Plug-In . SVG Version: 6.00 Build 0)  -->
<svg version="1.1" id="Layer_1" xmlns="http://www.w3.org/2000/svg" xmlns:xlink="http://www.w3.org/1999/xlink" x="0px" y="0px"
	 viewBox="0 0 32 32" style="enable-background:new 0 0 32 32;" xml:space="preserve">
<style type="text/css">
	.st0{fill:#313131;}
	.st1{fill:none;stroke:#313131;stroke-width:3;stroke-miterlimit:11.3386;}
</style>
<g id="test.001">
	<path class="st0" d="M15.3,14.9v2.3l9.2,6.6l0.8-2.8L18.4,16l6.8-4.9l-0.8-2.8L15.3,14.9z M10.9,7.4l-0.6,0.3L9.9,8.1L9.4,8.6
		L9.1,9.1L8.9,9.8l-0.1,0.6v3.2l0,0.3l-0.1,0.2l-0.2,0.2l-0.2,0.2l-0.2,0.1l-0.3,0H6.8v2.7h1.1l0.3,0l0.2,0.1l0.2,0.2l0.2,0.2
		l0.1,0.2l0,0.3v3.2L9,22.3l0.2,0.6l0.3,0.6l0.4,0.5l0.5,0.4l0.6,0.3l0.6,0.2l0.6,0.1h1.9v-2.7h-1.7l-0.2,0L12,22.1L11.8,22
		l-0.1-0.2l-0.1-0.2l0-0.2v-3l-0.1-0.6l-0.2-0.6l-0.3-0.6L10.7,16l0.4-0.5l0.3-0.6l0.2-0.6l0.1-0.6v-3l0-0.2l0.1-0.2l0.1-0.2L12,9.9
		l0.2-0.1l0.2,0h1.7V7.1h-1.9l-0.6,0.1L10.9,7.4z"/>
</g>
<circle class="st1" cx="16" cy="16" r="14.2"/>
</svg>
