<svg width="32" height="32" viewBox="0 0 32 32" fill="none" xmlns="http://www.w3.org/2000/svg">
<g clip-path="url(#clip0_133_2)">
<path d="M15.2394 14.7771V17.2237L25.0843 24.2598L25.8926 21.2459L18.5533 15.9995L25.8926 10.7531L25.0824 7.74103L15.2394 14.7771ZM10.5391 6.71627L9.9283 7.04382L9.39244 7.48484L8.95168 8.02101L8.62431 8.6322L8.42313 9.29464L8.35546 9.98452V13.4376L8.31705 13.7249L8.20549 13.9921L8.02809 14.2226L7.79765 14.4001L7.53063 14.5118L7.2435 14.5502H6.08398V17.4561H7.24533L7.53246 17.4946L7.79948 17.6062L8.02992 17.7837L8.20732 18.0143L8.31888 18.2814L8.35729 18.5687V22.0218L8.42496 22.7117L8.62613 23.3741L8.9535 23.9853L9.39427 24.5215L9.93013 24.9607L10.541 25.2882L11.203 25.4895L11.8925 25.5572H13.939V22.6623H12.1486L11.9218 22.633L11.7096 22.5452L11.5267 22.4061L11.3878 22.2231L11.3 22.0108L11.2707 21.7839V18.512L11.2067 17.8276L11.0201 17.1652L10.7147 16.5503L10.3014 16.0013L10.7147 15.4524L11.0201 14.8375L11.2085 14.1769L11.2725 13.4925V10.2224L11.3018 9.9955L11.3896 9.78323L11.5286 9.60024L11.7115 9.46116L11.9236 9.37333L12.1504 9.34405H13.9409V6.44727H11.8907L11.2012 6.51497L10.5391 6.71627Z" fill="#313131"/>
<path d="M16.1411 30.7302C23.938 30.7302 30.2587 24.1988 30.2587 16.1419C30.2587 8.08509 23.938 1.55371 16.1411 1.55371C8.34412 1.55371 2.02344 8.08509 2.02344 16.1419C2.02344 24.1988 8.34412 30.7302 16.1411 30.7302Z" stroke="#313131" stroke-width="2" stroke-miterlimit="11.3386"/>
</g>
<defs>
<clipPath id="clip0_133_2">
<rect width="32" height="32" fill="white"/>
</clipPath>
</defs>
</svg>
