<svg width="25" height="24" viewBox="0 0 25 24" fill="none" xmlns="http://www.w3.org/2000/svg">
<path d="M11.5545 10.4629V13.5371L23.98 22.3751L25 18.5901L15.7349 12L25 5.40988L23.98 1.62489L11.5545 10.4629ZM5.62217 0.337603L4.85031 0.747941L4.17356 1.30101L3.61809 1.97347L3.20598 2.74199L2.95237 3.57502L2.86691 4.44099V8.77768L2.81867 9.13861L2.67808 9.47484L2.45479 9.76441L2.16397 9.98673L1.82628 10.1267L1.46378 10.1747H0V13.8253H1.46653L1.82903 13.8733L2.16672 14.0133L2.45755 14.2356L2.68084 14.5252L2.82142 14.8614L2.86967 15.2223V19.559L2.95512 20.425L3.20873 21.258L3.62085 22.0265L4.17631 22.699L4.85307 23.2521L5.62493 23.6624L6.46157 23.9149L7.33129 24H9.91565V20.3646H7.6552L7.36851 20.3275L7.10111 20.2177L6.87093 20.0421L6.69451 19.8129L6.58424 19.5467L6.54703 19.2612V15.151L6.46709 14.2919L6.23001 13.4616L5.84408 12.6889L5.3217 12L5.84408 11.3111L6.23001 10.5384L6.46709 9.70814L6.54703 8.84904V4.74016L6.58424 4.45471L6.69451 4.18847L6.87093 3.95929L7.10111 3.78362L7.36851 3.67383L7.6552 3.63678H9.91565V0H7.32854L6.45882 0.0850869L5.62217 0.337603Z" fill="#F5F5F5"/>
</svg>
